<?xml version="1.0" encoding="UTF-8" standalone="no"?>
<!DOCTYPE svg PUBLIC "-//W3C//DTD SVG 1.1//EN" "http://www.w3.org/Graphics/SVG/1.1/DTD/svg11.dtd">
<svg xmlns="http://www.w3.org/2000/svg" version="1.1" viewBox="0 0 460 500" width="460.0pt" height="500.0pt">
<path d="M 79.74 0.00 L 83.37 0.00 C 92.02 0.47 100.50 2.15 108.53 5.42 C 109.44 5.80 110.25 6.33 110.97 6.99 C 125.56 21.41 139.84 36.16 154.64 50.36 C 166.30 62.03 177.97 73.72 189.65 85.36 C 193.89 89.12 197.91 93.02 201.78 97.17 C 175.19 97.35 148.59 97.22 122.00 97.23 C 119.22 97.34 115.70 96.72 113.27 98.22 C 95.79 107.25 81.42 122.33 73.18 140.19 C 67.24 153.44 64.10 168.46 65.37 182.98 C 66.18 194.78 69.38 206.58 74.98 217.01 C 76.50 220.13 77.82 223.16 80.47 225.52 C 96.15 240.86 111.66 256.32 127.12 271.88 C 143.18 286.78 158.09 302.93 174.00 318.00 C 198.50 342.50 223.00 367.00 247.51 391.50 C 251.43 395.17 255.24 398.92 259.01 402.74 C 208.68 402.77 158.34 402.74 108.00 402.75 C 97.11 402.69 86.76 403.20 75.99 400.99 C 47.72 395.68 22.55 376.97 9.98 351.01 C 3.50 338.69 0.52 325.09 0.00 311.24 L 0.00 89.67 C 0.83 74.69 3.74 60.18 10.82 46.84 C 16.06 35.32 24.18 25.92 33.59 17.61 C 46.52 6.66 62.81 0.52 79.74 0.00 Z" fill="#eb567b" />
<path d="M 122.00 97.23 C 148.59 97.22 175.19 97.35 201.78 97.17 L 201.91 97.31 C 207.21 102.92 212.70 108.39 218.34 113.66 C 255.52 150.51 292.48 187.49 329.54 224.46 C 343.51 238.17 357.40 251.92 371.21 265.79 C 375.13 269.77 379.79 273.34 383.12 277.84 C 390.36 289.75 394.77 303.33 395.64 317.27 C 398.53 352.39 377.78 387.88 345.89 402.77 C 342.31 403.24 338.61 402.88 335.00 402.95 C 309.78 403.03 284.55 402.82 259.34 403.06 L 259.01 402.74 C 255.24 398.92 251.43 395.17 247.51 391.50 C 223.00 367.00 198.50 342.50 174.00 318.00 C 158.09 302.93 143.18 286.78 127.12 271.88 C 111.66 256.32 96.15 240.86 80.47 225.52 C 77.82 223.16 76.50 220.13 74.98 217.01 C 69.38 206.58 66.18 194.78 65.37 182.98 C 64.10 168.46 67.24 153.44 73.18 140.19 C 81.42 122.33 95.79 107.25 113.27 98.22 C 115.70 96.72 119.22 97.34 122.00 97.23 Z" fill="#465bb5" />
<path d="M 201.91 97.31 C 251.93 97.17 301.97 97.29 352.00 97.25 C 359.37 97.30 366.62 97.06 373.98 97.56 C 395.35 98.99 415.77 108.07 431.49 122.56 C 440.53 131.15 447.88 141.63 452.97 153.02 C 456.50 160.60 458.36 168.61 460.00 176.76 L 460.00 421.32 C 458.45 432.66 455.21 443.69 449.85 453.83 C 445.91 462.29 440.20 470.02 433.53 476.54 C 420.12 490.96 400.95 499.48 381.28 500.00 L 377.60 500.00 C 371.21 499.51 364.60 498.65 358.48 496.65 C 355.49 495.66 351.79 494.79 349.51 492.52 C 333.46 476.56 317.63 460.37 301.36 444.64 C 293.30 436.71 285.55 428.43 277.14 420.86 C 271.19 414.94 265.28 408.99 259.34 403.06 C 284.55 402.82 309.78 403.03 335.00 402.95 C 338.61 402.88 342.31 403.24 345.89 402.77 C 377.78 387.88 398.53 352.39 395.64 317.27 C 394.77 303.33 390.36 289.75 383.12 277.84 C 379.79 273.34 375.13 269.77 371.21 265.79 C 357.40 251.92 343.51 238.17 329.54 224.46 C 292.48 187.49 255.52 150.51 218.34 113.66 C 212.70 108.39 207.21 102.92 201.91 97.31 Z" fill="#3fbcf8" />
</svg>
